/* XPM */
static char *_90a1e8ced9c415b88d0867f81a57cbcsu0EI3f9bgCB6G0U[] = {
/* columns rows colors chars-per-pixel */
"24 24 148 2 ",
"   c None",
".  c #040304",
"X  c #0A0405",
"o  c #150405",
"O  c #1D0507",
"+  c #140D0D",
"@  c #1E1819",
"#  c #1E1113",
"$  c #230708",
"%  c #280709",
"&  c #2D080A",
"*  c #280305",
"=  c #350406",
"-  c #33080B",
";  c #291517",
":  c #231A16",
">  c #241D1A",
",  c #2B211D",
"<  c #2E2A2B",
"1  c #2B2526",
"2  c #382D26",
"3  c #312E2F",
"4  c #3F332B",
"5  c #373233",
"6  c #460B0D",
"7  c #4C0C0E",
"8  c #400E10",
"9  c #5B1F1E",
"0  c #6E0C10",
"q  c #750E13",
"w  c #631718",
"e  c #641416",
"r  c #7F1015",
"t  c #572A26",
"y  c #592825",
"u  c #403C3C",
"i  c #573830",
"p  c #5A3B33",
"a  c #623C38",
"s  c #723A3D",
"d  c #4B433E",
"f  c #5F453A",
"g  c #423F40",
"h  c #4A4748",
"j  c #5C595A",
"k  c #6C4D41",
"l  c #675648",
"z  c #725F4F",
"x  c #766453",
"c  c #706E6F",
"v  c #830F14",
"b  c #8F1116",
"n  c #941117",
"m  c #9B1117",
"M  c #971318",
"N  c #A5141A",
"B  c #AF161C",
"V  c #B2151C",
"C  c #BA141B",
"Z  c #A71D22",
"A  c #AE2329",
"S  c #BE2F34",
"D  c #C3151C",
"F  c #C5181F",
"G  c #CA181F",
"H  c #D41921",
"J  c #DA1921",
"K  c #E71B23",
"L  c #EC1B23",
"P  c #CB2C32",
"I  c #EC232B",
"U  c #E72830",
"Y  c #ED2C33",
"T  c #EE3037",
"R  c #EE333A",
"E  c #EE3A41",
"W  c #846F5C",
"Q  c #85715E",
"!  c #CC454A",
"~  c #D04D53",
"^  c #ED4047",
"/  c #F1434A",
"(  c #EF4C52",
")  c #F04F55",
"_  c #F05056",
"`  c #F05359",
"'  c #F25B60",
"]  c #DE6A6E",
"[  c #DD666B",
"{  c #F2656A",
"}  c #F4797E",
"|  c #F37479",
" . c #97816B",
".. c #A68E75",
"X. c #AF997E",
"o. c #AC9379",
"O. c #B39A7F",
"+. c #9C9B9B",
"@. c #A1978E",
"#. c #A3988F",
"$. c #B69C80",
"%. c #B89E83",
"&. c #BCA286",
"*. c #BFA78A",
"=. c #B2B1B2",
"-. c #F58F93",
";. c #F69A9E",
":. c #C6AD8F",
">. c #CBAE90",
",. c #CCB092",
"<. c #D5B797",
"1. c #D6B898",
"2. c #DABD9B",
"3. c #DDA9AB",
"4. c #C6B1B2",
"5. c #D4B2B3",
"6. c #E7A1A3",
"7. c #F6A0A3",
"8. c #F6A7AA",
"9. c #F7A9AC",
"0. c #F8ABAE",
"q. c #F8ADB0",
"w. c #F9B7B9",
"e. c #FBB9BC",
"r. c #DDC0A1",
"t. c #E3C4A2",
"y. c #EACAA6",
"u. c #EDCDA9",
"i. c #F4D2AD",
"p. c #F9D7B1",
"a. c #FFDDB5",
"s. c #FFE1B9",
"d. c #CACACA",
"f. c #DBDDDD",
"g. c #FAC2C4",
"h. c #FAC6C8",
"j. c #FCCCCE",
"k. c #FBCFD0",
"l. c #FBD1D3",
"z. c #FDD8D9",
"x. c #E8E7E7",
"c. c #E1E3E3",
"v. c #FCE6E7",
"b. c #FDEBEC",
"n. c #F2EBEC",
"m. c #EEF1F1",
"M. c #FFF4F4",
"N. c #FFFFFF",
/* pixels */
"                  o * = = * o .                 ",
"            X & 0 Z ! [ ] ~ A q - X             ",
"          O q G _ e.M.N.N.M.j.{ H r $           ",
"        & N L ' v.N.N.N.N.N.N.M.} L B -         ",
"      % B L R l.N.N.N.N.N.N.N.N.b.( L C -       ",
"    o M L L | N.N.N.N.N.N.N.N.N.N.;.L L N O     ",
"    a U L L 7.N.N.N.N.N.N.N.N.N.N.h.I L I s     ",
"  > 4./ L L 9.N.N.N.N.N.N.N.N.N.N.j.I L R 5.<   ",
"  j b.) L L -.N.N.N.N.N.N.N.N.N.N.w.I L E v.c   ",
"X +.M.( L L ` M.N.N.N.N.N.N.N.N.N.} L L E b.=.+ ",
"@ d.b.E L L I 7.N.N.N.N.N.N.N.N.g.Y L L Y z.f.1 ",
"< c.g.I L L L Y 8.M.N.N.N.N.N.g.^ L L L L 0.m.u ",
"5 x.} L L L L L I { q.k.l.w.| Y L L L L L { n.h ",
"3 3.T L L L L L L L L Y Y I L L L L L L L I 6.g ",
"# S L L L L L L K H D C C D J L L L L L L L P ; ",
"X v L L L L H n w t p f f i y e m J L L L L b X ",
"  - F L L N y W *.:.u.p.p.u.*.X.z 9 V L L F -   ",
"    6 F V k 2.a.y.@.t.a.a.u.#.r.a.:.a D G 6     ",
"      - 8 %.s.a.<.d ,.a.a.t.d &.a.s...7 -       ",
"        X ..a.a.1., >.a.a.t., &.a.a. ..         ",
"          z a.a.u.Q y.a.a.i.Q 2.a.p.l           ",
"          > O.a.a.a.a.a.a.a.a.a.a.o.:           ",
"            > x %.2.y.y.y.y.2.$.x :             ",
"                + , 2 4 4 2 , +                 "
};
