/* XPM */
static char *_75a064793ca46b9c8ac8c58d2ccda889SRo87mBrwTVBBRq[] = {
/* columns rows colors chars-per-pixel */
"40 40 46 1 ",
"  c None",
". c black",
"X c #030000",
"o c #000203",
"O c #040304",
"+ c #080304",
"@ c #090304",
"# c #090305",
"$ c #0A0304",
"% c #0A0305",
"& c #090404",
"* c #090405",
"= c #0A0405",
"- c #0B0405",
"; c #0D0405",
": c #0D0707",
"> c #0D0708",
", c #2D0709",
"< c #450A0D",
"1 c #781014",
"2 c #41352C",
"3 c #EA1C24",
"4 c #EB1C24",
"5 c #EA1D25",
"6 c #EB1E26",
"7 c #EA1F26",
"8 c #EB1F27",
"9 c #F71C25",
"0 c #EF4D53",
"q c #F4A0A3",
"w c #F8B8BB",
"e c #F9D6B0",
"r c #FAD7B1",
"t c #FAD8B1",
"y c #FDDAB3",
"u c #FEDBB4",
"i c #FFDEB6",
"p c #FFDFB7",
"a c #FFE5BC",
"s c #FCE1E2",
"d c #FDEBEC",
"f c #FEFAFB",
"g c #FEFBFB",
"h c #FEFEFE",
"j c #FEFFFF",
"k c white",
/* pixels */
"                                        ",
"                                        ",
"                                        ",
"                                        ",
"                                        ",
"                                        ",
"                                        ",
"                                        ",
"                                        ",
"                                        ",
"                 +====+                 ",
"               =O66kk66<=               ",
"              =66kkkkkk66=              ",
"             +66kkkkkkkk66;             ",
"            =666kkkkkkkkf66=            ",
"           =666kkkkkkkkkk666=           ",
"           =f44kkkkkkkkkk66w;           ",
"          +kk44skkkkkkkkk66kk+          ",
"          =kk644kkkkkkkk666qk=          ",
"          =k66446kkkkkk66666k=          ",
"          =k6664660kkd666666k=          ",
"          =666666666666666666=          ",
"          =6666666o+=,6664666=          ",
"           9666+=uuuuur=o4661           ",
"           =66=uu2ruuu=uu+66+           ",
"            +=uuu;auuu=uui==            ",
"              iuuotuuu=uuo              ",
"              =uuuuuuuuuu+              ",
"               =uuuuuuuu=               ",
"                +======+                ",
"                                        ",
"                                        ",
"                                        ",
"                                        ",
"                                        ",
"                                        ",
"                                        ",
"                                        ",
"                                        ",
"                                        "
};
