/* XPM */
static char *_d8859f31cd14773afcfabe66f47d665sjZsWbdxB5pKiI2j[] = {
/* columns rows colors chars-per-pixel */
"128 32 13 1 ",
"  c None",
". c #141412",
"X c #261A26",
"o c #47280D",
"O c #463D35",
"+ c #432341",
"@ c #5F2E5C",
"# c #7C6C5E",
"$ c #804A1E",
"% c #F09A53",
"& c #932D8B",
"* c #CBC3BC",
"= c #FDFDFD",
/* pixels */
"            ......                                                                                                              ",
"           X&&&&&@.                                                                                         ......              ",
"           X@&&&&&&.                        ......                          ......                         X&&&&&@.             ",
"           XX@&&&&&&.                      X&&&&&@.                        X&&&&&@.                        X@&&&&&&.            ",
"           X@&&&&&@@@.                     X@&&&&&&.                       X@&&&&&&.                       XX@&&&&&&.           ",
"           X&&&&&&&&&&.                    XX@&&&&&&.                      XX@&&&&&&.                      X@&&&&&@@@.          ",
"          X$$$$$%%%%%%%.                   X@&&&&&@@@.                     X@&&&&&@@@.                     X&&&&&&&&&&.         ",
"         XX$$$$$%%%%%%%%..                 X&&&&&&&&&&.                    X&&&&&&&&&&.                   X$$$$$%%%%%%%.        ",
"       XX@@@@@@@&@&&&&&&&&..              X$$$$$%%%%%%%.                  X$$$$$%%%%%%%.                 XX$$$$$%%%%%%%%..      ",
"     XX@@@@@@@@@&@&&&&&&&&&&.            XX$$$$$%%%%%%%%..                X$$$$$%%%%%%%%.              XX@@@@@@@&@&&&&&&&&..    ",
"    X@@@@&&&&&&OOoo$$$##.....          XX@@@@@@@&@&&&&&&&&..             X@@@@@@&@&&&&&&&.           XX@@@@@@@@@&@&&&&&&&&&&.   ",
"    XXXXXXX######%%%%%##.            XX@@@@@@@@@&@&&&&&&&&&&.          XX@@@@@@@&@&&&&&&&&..        X@@@@&&&&&&OOoo$$$##.....   ",
"          .====*$%%%%%..            X@@@@&&&&&&OOoo$$$##.....        XX@@@&&&&&OOoo$$$##&&&&.       XXXXXXX######%%%%%##.       ",
"          .====*%%%%%%.             XXXXXXX######%%%%%##.           X@@@&&@######%%%%%##.....             .====*$%%%%%..        ",
"          .====**%*===*.                  .====*$%%%%%..            XXXXXX.====*$%%%%%...                 .====*%%%%%%.         ",
"         .&&&@=**==$$$=.                  .====*%%%%%%.                   .====*%%%%%%.                   .====**%*===*.        ",
"        .&&&&&@**======..                 .====**%*===*.                  .====**%*===*.                 .&&&@=**==$$$=.        ",
"        .&&&&&@&&======..                .&&&@=**==$$$=.                  .====**==$$$=.                .&&&&&@**======..       ",
"        .&&&&&@&&======..               .&&&&&@**======..                .&&&@=**======..               .&&&&&@&&======..       ",
"         .&&&@@&&======..               .&&&&&@&&======..               .&&&&&@&&======..               .&&&&&@&&======..       ",
"          ..++@@&*=====.                 .&&&@@&&======..               .&&&&&@&&======..                .&&&@@&&======..       ",
"           .+++@@&*===*.                  ..++@@&*=====.                 .&&&@@@&======.                  ..++@@&*=====.        ",
"            .o$$$%$%%%%.                   .+++@@&*===*.                  ..+++@@*=====.                   .+++@@&*===*.        ",
"            .o$$$%$%%%%.                    .o$$$%$%%%%.                   ..o$$$%*===*.                    .o$$$%$%%%%.        ",
"            ..++@+@+@@@.                    .o$$$%$%%%%.                    .o$$$%$%%%%.                    .o$$$%$%%%%.        ",
"            ..&&@&&&&&&.                    ..++@+@+@@@.                    ..++@+@+@@@.                    ..++@+@+@@@.        ",
"           .+@&&@&&&&&&@.                   ..&&@&&&&&&.                    ..&&@&&&&&&.                    ..&&@&&&&&&.        ",
"           .@@&&&&&&&&&@.                  .+@&&@&&&&&&@.                  .+@&&@&&&&&&@.                  .+@&&@&&&&&&@.       ",
"           .@@&&&&&&&&&&.                  .@@&&&&&&&&&@.                  .@@&&&&&&&&&@.                  .@@&&&&&&&&&&.       ",
"          .+@&&&&&&&&&&&.                 .+@&&&&&&&&&&&.                 .+@&&&&&&&&&&&.                 .+@&&&&&&&&&&&.       ",
"          .@@&&&@&&&&&&&.                 .@@&&&@&&&&&&&.                 .@@&&&@&&&&&&&.                 .@@&&&@&&&&&&&.       ",
"         ++@@&&&@&&&&&&&@.               ++@@&&&@&&&&&&&@.               ++@@&&&@&&&&&&&@.               ++@@&&&@&&&&&&&@.      "
};
