/* XPM */
static char *b99c64cd08d64501c830622049851f1ce5hHw6LsxhOoMmZE[] = {
/* columns rows colors chars-per-pixel */
"33 32 14 1 ",
"  c None",
". c #141412",
"X c #252716",
"o c #331E32",
"O c #373A20",
"+ c #47280D",
"@ c #5F5625",
"# c #1C3845",
"$ c #5F2E5C",
"% c #B56C30",
"& c #928230",
"* c #F09A53",
"= c #932D8B",
"- c #0C98D6",
/* pixels */
"                                 ",
"                                 ",
"              XXXXXXX            ",
"            XX@&&&&@@.           ",
"           X@&&&&&&&&@.          ",
"          .@@&&&&&&&&&@.         ",
"         .OOO@&&&@..@&&.         ",
"         .OOOO@&.....@&.         ",
"        .OOOOO&.......&.         ",
"        .OOOO@&.......&.         ",
"       .OOOOO&...-..-.@.         ",
"       .O@@@O&o..#..#.@.         ",
"       ..O@@@&o.......O.         ",
"        ...OO@o$o.....o.         ",
"        .OOOO@@$$$====$.         ",
"        X&&&OO@&$$====$..        ",
"       X&&&&&@@&&&&@@&&..        ",
"       X&&&&&@@@&&&&&&&..        ",
"       X@&&&@OOO&&&&&&&..        ",
"        XXXX.OOO@&&&&&@.         ",
"          ...OOOO......          ",
"           ++%+%%%**%%.          ",
"           ++%+%%****%.          ",
"          X@@@@@@@**%OO.         ",
"          X&&&&&&@..@@@.         ",
"         X@&&&&&&O..@@@@.        ",
"         X&&&&&&O...@@@@.        ",
"        ..&&&&&&. ...@@@.        ",
"        .........  ......        ",
"        .%%%..      .+++.        ",
"       ..+++.       ......       ",
"       .***..       .+%%%.       "
};
